<svg xmlns="http://www.w3.org/2000/svg" version="1.1" width="120px" height="119px" style="shape-rendering:geometricPrecision; text-rendering:geometricPrecision; image-rendering:optimizeQuality; fill-rule:evenodd; clip-rule:evenodd" xmlns:xlink="http://www.w3.org/1999/xlink">
<path style="opacity:1" fill="#ee9b98" d="M 110.5,28.5 C 110.81,31.5359 109.143,33.2026 105.5,33.5C 106.833,31.5 108.5,29.8333 110.5,28.5 Z"/>
<path style="opacity:0.949" fill="#838182" d="M 110.5,28.5 C 111.625,27.9859 112.791,27.6526 114,27.5C 108.849,34.8294 102.682,41.496 95.5,47.5C 95.5,46.1667 94.8333,45.5 93.5,45.5C 97.5,41.5 101.5,37.5 105.5,33.5C 109.143,33.2026 110.81,31.5359 110.5,28.5 Z"/>
<path style="opacity:0.054" fill="#cbcbcc" d="M 19.5,42.5 C 20.4861,46.97 20.8195,51.6367 20.5,56.5C 23.5,56.5 26.5,56.5 29.5,56.5C 26.3752,57.4794 23.0419,57.8128 19.5,57.5C 19.5,56.5 19.5,55.5 19.5,54.5C 19.5,50.5 19.5,46.5 19.5,42.5 Z"/>
<path style="opacity:1" fill="#49494b" d="M 11.5,42.5 C 14.1667,42.5 16.8333,42.5 19.5,42.5C 19.5,46.5 19.5,50.5 19.5,54.5C 17.1667,54.5 14.8333,54.5 12.5,54.5C 12.7373,53.209 12.404,52.209 11.5,51.5C 11.5,48.5 11.5,45.5 11.5,42.5 Z"/>
<path style="opacity:1" fill="#58585a" d="M 61.5,56.5 C 61.5,54.8333 61.5,53.1667 61.5,51.5C 58.9407,51.1984 56.6074,51.5318 54.5,52.5C 53.7109,52.2172 53.0442,51.7172 52.5,51C 47.8452,50.5008 43.1785,50.3342 38.5,50.5C 38.5,60.1667 38.5,69.8333 38.5,79.5C 35.5,79.5 32.5,79.5 29.5,79.5C 29.5,74.5 29.5,69.5 29.5,64.5C 30.4861,68.97 30.8195,73.6367 30.5,78.5C 32.8333,78.5 35.1667,78.5 37.5,78.5C 37.5,72.1667 37.5,65.8333 37.5,59.5C 37.5,58.5 37.5,57.5 37.5,56.5C 34.8333,56.5 32.1667,56.5 29.5,56.5C 29.797,52.2325 29.4637,48.0659 28.5,44C 32.6576,42.861 36.9909,42.361 41.5,42.5C 45.5,42.6667 49.5,42.8333 53.5,43C 60.4874,45.1607 63.154,49.6607 61.5,56.5 Z"/>
<path style="opacity:1" fill="#515152" d="M 79.5,53.5 C 77.0905,54.7007 75.0905,56.3674 73.5,58.5C 68.6551,53.8166 64.3217,48.65 60.5,43C 64.5,42.3333 68.5,42.3333 72.5,43C 75.4736,46.1278 77.8069,49.6278 79.5,53.5 Z"/>
<path style="opacity:1" fill="#cdc2c3" d="M 93.5,45.5 C 91.7607,48.2427 89.4274,50.2427 86.5,51.5C 88.2393,48.7573 90.5726,46.7573 93.5,45.5 Z"/>
<path style="opacity:1" fill="#ed4b3c" d="M 105.5,33.5 C 101.5,37.5 97.5,41.5 93.5,45.5C 90.5726,46.7573 88.2393,48.7573 86.5,51.5C 77.5343,58.4645 68.8677,65.7978 60.5,73.5C 59.8333,73.5 59.1667,73.5 58.5,73.5C 58.5,72.8333 58.1667,72.5 57.5,72.5C 56.8333,72.5 56.5,72.1667 56.5,71.5C 56.5,70.8333 56.1667,70.5 55.5,70.5C 55.5,69.8333 55.1667,69.5 54.5,69.5C 54.5,68.8333 54.1667,68.5 53.5,68.5C 53.5,67.8333 53.1667,67.5 52.5,67.5C 52.5,67.1667 52.5,66.8333 52.5,66.5C 51.3398,64.7973 52.0065,64.1307 54.5,64.5C 55.8708,66.8666 57.8708,68.5333 60.5,69.5C 64.683,65.9157 69.0164,62.5824 73.5,59.5C 76.0599,57.7267 78.3932,55.7267 80.5,53.5C 88.277,46.1149 96.6103,39.4482 105.5,33.5 Z"/>
<path style="opacity:1" fill="#505051" d="M 93.5,45.5 C 94.8333,45.5 95.5,46.1667 95.5,47.5C 92.5,51.1667 89.1667,54.5 85.5,57.5C 84.8333,56.8333 84.1667,56.1667 83.5,55.5C 84.5,54.1667 85.5,52.8333 86.5,51.5C 89.4274,50.2427 91.7607,48.2427 93.5,45.5 Z"/>
<path style="opacity:1" fill="#cec4c4" d="M 86.5,51.5 C 85.5,52.8333 84.5,54.1667 83.5,55.5C 76.4381,61.9015 69.1047,67.9015 61.5,73.5C 61.1667,73.5 60.8333,73.5 60.5,73.5C 68.8677,65.7978 77.5343,58.4645 86.5,51.5 Z"/>
<path style="opacity:0.071" fill="#e9c5c5" d="M 79.5,53.5 C 79.8333,53.5 80.1667,53.5 80.5,53.5C 78.3932,55.7267 76.0599,57.7267 73.5,59.5C 73.5,59.1667 73.5,58.8333 73.5,58.5C 75.0905,56.3674 77.0905,54.7007 79.5,53.5 Z"/>
<path style="opacity:1" fill="#000000" d="M 11.5,55.5 C 12.4682,57.6074 12.8016,59.9407 12.5,62.5C 12.5,63.5 12.5,64.5 12.5,65.5C 15.188,65.8342 17.5214,65.1675 19.5,63.5C 19.5,68.5 19.5,73.5 19.5,78.5C 16.8333,78.5 14.1667,78.5 11.5,78.5C 11.5,70.8333 11.5,63.1667 11.5,55.5 Z"/>
<path style="opacity:1" fill="#1e1e1f" d="M 11.5,51.5 C 12.404,52.209 12.7373,53.209 12.5,54.5C 14.8333,54.5 17.1667,54.5 19.5,54.5C 19.5,55.5 19.5,56.5 19.5,57.5C 23.0419,57.8128 26.3752,57.4794 29.5,56.5C 32.1667,56.5 34.8333,56.5 37.5,56.5C 37.5,57.5 37.5,58.5 37.5,59.5C 36.596,60.209 36.2627,61.209 36.5,62.5C 28.5,62.5 20.5,62.5 12.5,62.5C 12.8016,59.9407 12.4682,57.6074 11.5,55.5C 11.5,54.1667 11.5,52.8333 11.5,51.5 Z"/>
<path style="opacity:0.211" fill="#b7b7b8" d="M 51.5,56.5 C 51.5,57.1667 51.1667,57.5 50.5,57.5C 47.5,57.5 44.5,57.5 41.5,57.5C 41.5,59.8333 41.5,62.1667 41.5,64.5C 40.5269,62.0521 40.1936,59.3854 40.5,56.5C 44.1667,56.5 47.8333,56.5 51.5,56.5 Z"/>
<path style="opacity:1" fill="#020202" d="M 37.5,59.5 C 37.5,65.8333 37.5,72.1667 37.5,78.5C 35.1667,78.5 32.8333,78.5 30.5,78.5C 30.8195,73.6367 30.4861,68.97 29.5,64.5C 26.3752,63.5206 23.0419,63.1872 19.5,63.5C 17.5214,65.1675 15.188,65.8342 12.5,65.5C 12.5,64.5 12.5,63.5 12.5,62.5C 20.5,62.5 28.5,62.5 36.5,62.5C 36.2627,61.209 36.596,60.209 37.5,59.5 Z"/>
<path style="opacity:1" fill="#1e1e1e" d="M 83.5,55.5 C 84.1667,56.1667 84.8333,56.8333 85.5,57.5C 85.5,58.1667 85.1667,58.5 84.5,58.5C 81.8333,60.5 79.5,62.8333 77.5,65.5C 73.3701,70.1312 69.0367,74.6312 64.5,79C 61.5,79.6667 58.5,79.6667 55.5,79C 50.6301,74.2979 45.9634,69.4646 41.5,64.5C 41.5,62.1667 41.5,59.8333 41.5,57.5C 44.5,57.5 47.5,57.5 50.5,57.5C 48.0521,58.4731 45.3854,58.8064 42.5,58.5C 42.5,59.8333 42.5,61.1667 42.5,62.5C 46.0419,62.1872 49.3752,62.5206 52.5,63.5C 51.0222,63.238 49.6888,63.5713 48.5,64.5C 48.6236,65.1067 48.9569,65.44 49.5,65.5C 49.8333,65.5 50.1667,65.5 50.5,65.5C 50.3284,66.4916 50.6618,67.1583 51.5,67.5C 51.8333,67.5 52.1667,67.5 52.5,67.5C 53.1667,67.5 53.5,67.8333 53.5,68.5C 54.1667,68.5 54.5,68.8333 54.5,69.5C 55.1667,69.5 55.5,69.8333 55.5,70.5C 56.1667,70.5 56.5,70.8333 56.5,71.5C 56.5,72.1667 56.8333,72.5 57.5,72.5C 58.1667,72.5 58.5,72.8333 58.5,73.5C 59.5,74.8333 60.5,74.8333 61.5,73.5C 69.1047,67.9015 76.4381,61.9015 83.5,55.5 Z"/>
<path style="opacity:1" fill="#252526" d="M 61.5,56.5 C 60.1886,59.8114 57.8553,62.1448 54.5,63.5C 53.8333,63.5 53.1667,63.5 52.5,63.5C 49.3752,62.5206 46.0419,62.1872 42.5,62.5C 42.5,61.1667 42.5,59.8333 42.5,58.5C 45.3854,58.8064 48.0521,58.4731 50.5,57.5C 51.1667,57.5 51.5,57.1667 51.5,56.5C 53.2624,55.7377 54.2624,54.4044 54.5,52.5C 56.6074,51.5318 58.9407,51.1984 61.5,51.5C 61.5,53.1667 61.5,54.8333 61.5,56.5 Z"/>
<path style="opacity:1" fill="#c3c3c3" d="M 84.5,58.5 C 84.8333,59.1667 85.1667,59.8333 85.5,60.5C 82.5,61.5 80.5,63.5 79.5,66.5C 78.8333,66.1667 78.1667,65.8333 77.5,65.5C 79.5,62.8333 81.8333,60.5 84.5,58.5 Z"/>
<path style="opacity:0.486" fill="#b59a9a" d="M 52.5,63.5 C 53.1667,63.5 53.8333,63.5 54.5,63.5C 54.5,63.8333 54.5,64.1667 54.5,64.5C 52.0065,64.1307 51.3398,64.7973 52.5,66.5C 51.8333,66.5 51.5,66.8333 51.5,67.5C 50.6618,67.1583 50.3284,66.4916 50.5,65.5C 50.1667,64.1667 49.8333,64.1667 49.5,65.5C 48.9569,65.44 48.6236,65.1067 48.5,64.5C 49.6888,63.5713 51.0222,63.238 52.5,63.5 Z"/>
<path style="opacity:1" fill="#171717" d="M 85.5,60.5 C 90.2097,65.8767 94.543,71.5434 98.5,77.5C 95.3752,78.4794 92.0419,78.8128 88.5,78.5C 85.0251,74.8962 82.0251,70.8962 79.5,66.5C 80.5,63.5 82.5,61.5 85.5,60.5 Z"/>
<path style="opacity:0.095" fill="#b8b8b8" d="M 11.5,42.5 C 11.5,45.5 11.5,48.5 11.5,51.5C 11.5,52.8333 11.5,54.1667 11.5,55.5C 11.5,63.1667 11.5,70.8333 11.5,78.5C 14.1667,78.5 16.8333,78.5 19.5,78.5C 19.5,73.5 19.5,68.5 19.5,63.5C 23.0419,63.1872 26.3752,63.5206 29.5,64.5C 26.5,64.5 23.5,64.5 20.5,64.5C 20.5,69.5 20.5,74.5 20.5,79.5C 17.1667,79.5 13.8333,79.5 10.5,79.5C 10.1714,66.9887 10.5048,54.6554 11.5,42.5 Z"/>
<path style="opacity:0.616" fill="#727273" d="M 98.5,77.5 C 99.2891,77.7828 99.9558,78.2828 100.5,79C 96.3112,79.8119 92.3112,79.6453 88.5,78.5C 92.0419,78.8128 95.3752,78.4794 98.5,77.5 Z"/>
</svg>
